<svg width="150" height="150" viewBox="0 0 150 150" fill="none" xmlns="http://www.w3.org/2000/svg">
<rect x="1" y="1" width="148" height="148" rx="14" stroke="#FF006E" stroke-width="2"/>
<path d="M94.525 49.975C93.635 49.975 92.765 50.2389 92.0249 50.7334C91.2849 51.2279 90.7081 51.9307 90.3675 52.7529C90.0269 53.5752 89.9378 54.48 90.1115 55.3529C90.2851 56.2258 90.7137 57.0276 91.343 57.657C91.9724 58.2863 92.7742 58.7149 93.6471 58.8885C94.52 59.0622 95.4248 58.9731 96.2471 58.6325C97.0693 58.2919 97.7721 57.7151 98.2666 56.9751C98.7611 56.235 99.025 55.365 99.025 54.475C99.025 53.2815 98.5509 52.1369 97.707 51.293C96.8631 50.4491 95.7185 49.975 94.525 49.975ZM111.775 59.05C111.702 55.9386 111.119 52.8603 110.05 49.9375C109.096 47.4367 107.612 45.1723 105.7 43.3C103.843 41.3778 101.573 39.9032 99.0625 38.9875C96.1475 37.8856 93.0657 37.2895 89.95 37.225C85.975 37 84.7 37 74.5 37C64.3 37 63.025 37 59.05 37.225C55.9343 37.2895 52.8525 37.8856 49.9375 38.9875C47.4313 39.9124 45.1635 41.3859 43.3 43.3C41.3778 45.1569 39.9032 47.4266 38.9875 49.9375C37.8856 52.8525 37.2895 55.9343 37.225 59.05C37 63.025 37 64.3 37 74.5C37 84.7 37 85.975 37.225 89.95C37.2895 93.0657 37.8856 96.1475 38.9875 99.0625C39.9032 101.573 41.3778 103.843 43.3 105.7C45.1635 107.614 47.4313 109.088 49.9375 110.012C52.8525 111.114 55.9343 111.71 59.05 111.775C63.025 112 64.3 112 74.5 112C84.7 112 85.975 112 89.95 111.775C93.0657 111.71 96.1475 111.114 99.0625 110.012C101.573 109.097 103.843 107.622 105.7 105.7C107.621 103.835 109.106 101.568 110.05 99.0625C111.119 96.1397 111.702 93.0614 111.775 89.95C111.775 85.975 112 84.7 112 74.5C112 64.3 112 63.025 111.775 59.05ZM105.025 89.5C104.998 91.8804 104.567 94.2389 103.75 96.475C103.151 98.107 102.19 99.5816 100.937 100.788C99.7212 102.027 98.2496 102.987 96.625 103.6C94.3889 104.417 92.0304 104.848 89.65 104.875C85.9 105.062 84.5125 105.1 74.65 105.1C64.7875 105.1 63.4 105.1 59.65 104.875C57.1783 104.921 54.7172 104.541 52.375 103.75C50.8217 103.105 49.4176 102.148 48.25 100.937C47.0053 99.7328 46.0557 98.257 45.475 96.625C44.5595 94.3568 44.0517 91.9448 43.975 89.5C43.975 85.75 43.75 84.3625 43.75 74.5C43.75 64.6375 43.75 63.25 43.975 59.5C43.9918 57.0665 44.4361 54.6548 45.2875 52.375C45.9477 50.7922 46.961 49.3812 48.25 48.25C49.3893 46.9606 50.7973 45.9366 52.375 45.25C54.6608 44.4252 57.07 43.994 59.5 43.975C63.25 43.975 64.6375 43.75 74.5 43.75C84.3625 43.75 85.75 43.75 89.5 43.975C91.8804 44.0023 94.2389 44.4334 96.475 45.25C98.1791 45.8824 99.7086 46.9107 100.937 48.25C102.166 49.4019 103.127 50.8102 103.75 52.375C104.583 54.6585 105.015 57.0692 105.025 59.5C105.212 63.25 105.25 64.6375 105.25 74.5C105.25 84.3625 105.212 85.75 105.025 89.5ZM74.5 55.2625C70.6968 55.2699 66.9811 56.4045 63.8225 58.5228C60.6638 60.6412 58.2039 63.6482 56.7536 67.1641C55.3033 70.6799 54.9277 74.5467 55.6742 78.276C56.4207 82.0052 58.2559 85.4295 60.9478 88.1162C63.6397 90.8028 67.0675 92.6313 70.7982 93.3706C74.5289 94.1098 78.395 93.7267 81.908 92.2695C85.421 90.8124 88.4233 88.3466 90.5355 85.1839C92.6477 82.0211 93.775 78.3032 93.775 74.5C93.78 71.9691 93.2845 69.4623 92.3172 67.1236C91.3498 64.7849 89.9296 62.6605 88.1383 60.8727C86.3469 59.0848 84.2198 57.6688 81.8792 56.706C79.5387 55.7432 77.0308 55.2526 74.5 55.2625ZM74.5 86.9875C72.0302 86.9875 69.6159 86.2551 67.5623 84.883C65.5088 83.5108 63.9082 81.5606 62.9631 79.2788C62.0179 76.997 61.7706 74.4861 62.2524 72.0638C62.7343 69.6415 63.9236 67.4164 65.67 65.67C67.4164 63.9236 69.6415 62.7343 72.0638 62.2524C74.4861 61.7706 76.997 62.0179 79.2788 62.9631C81.5606 63.9082 83.5108 65.5088 84.883 67.5623C86.2551 69.6159 86.9875 72.0302 86.9875 74.5C86.9875 76.1399 86.6645 77.7637 86.0369 79.2788C85.4094 80.7938 84.4896 82.1704 83.33 83.33C82.1704 84.4896 80.7938 85.4094 79.2788 86.0369C77.7637 86.6645 76.1399 86.9875 74.5 86.9875Z" fill="#FF006E"/>
</svg>
