<svg width="150" height="150" viewBox="0 0 150 150" fill="none" xmlns="http://www.w3.org/2000/svg">
<rect x="1" y="1" width="148" height="148" rx="14" stroke="#8338EC" stroke-width="2"/>
<path d="M38 88.1322C38 89.0629 38.3374 89.7666 39.0121 90.2436C39.6869 90.7205 40.4081 90.8892 41.1759 90.7496C41.8971 90.61 42.4032 90.3541 42.6941 89.9818C42.9849 89.6096 43.1304 88.993 43.1304 88.1322V78.0112C43.1304 77.2899 42.8803 76.6791 42.38 76.1789C41.8798 75.6787 41.2691 75.4286 40.5478 75.4286C39.8498 75.4286 39.2507 75.6787 38.7504 76.1789C38.2502 76.6791 38 77.2899 38 78.0112V88.1322ZM46.027 92.4597C46.027 93.1346 46.2655 93.6405 46.7424 93.978C47.2195 94.3154 47.8302 94.484 48.5747 94.484C49.3425 94.484 49.9648 94.3153 50.4418 93.978C50.9188 93.6406 51.1573 93.1346 51.1573 92.4597V68.8674C51.1573 68.1694 50.9071 67.5702 50.4069 67.07C49.9067 66.5698 49.2959 66.3197 48.5747 66.3197C47.8767 66.3197 47.2775 66.5698 46.7773 67.07C46.2771 67.5703 46.027 68.1694 46.027 68.8674V92.4597ZM54.0191 93.5765C54.0191 94.2513 54.2634 94.7573 54.752 95.0948C55.2406 95.4321 55.8688 95.6008 56.6366 95.6008C57.3811 95.6008 57.9919 95.4321 58.4688 95.0948C58.9458 94.7573 59.1843 94.2513 59.1843 93.5765V72.0433C59.1843 71.322 58.9342 70.7054 58.434 70.1936C57.9337 69.6817 57.3346 69.4258 56.6366 69.4258C55.9153 69.4258 55.2988 69.6817 54.7869 70.1936C54.2751 70.7054 54.0191 71.322 54.0191 72.0433L54.0191 93.5765ZM62.0461 93.6812C62.0461 94.961 62.9069 95.6008 64.6287 95.6008C66.3503 95.6008 67.2112 94.961 67.2112 93.6812V58.7813C67.2112 56.8269 66.6179 55.7218 65.4313 55.4658C64.6635 55.2796 63.9073 55.5007 63.1628 56.1289C62.4182 56.7571 62.046 57.6412 62.046 58.7813V93.6812H62.0461ZM70.2127 94.6933V56.7222C70.2127 55.5124 70.5733 54.7911 71.2946 54.5584C72.8535 54.1862 74.4007 54 75.9363 54C79.496 54 82.8116 54.8376 85.8827 56.5128C88.9539 58.188 91.4377 60.4739 93.3339 63.3706C95.2301 66.2674 96.3295 69.4607 96.6319 72.9507C98.0512 72.3458 99.5634 72.0433 101.169 72.0433C104.426 72.0433 107.212 73.195 109.527 75.4984C111.842 77.8019 113 80.5706 113 83.8047C113 87.0621 111.842 89.8424 109.527 92.1458C107.212 94.4492 104.438 95.6009 101.204 95.6009L70.8408 95.566C70.6313 95.4962 70.4743 95.3682 70.3696 95.1821C70.2649 94.996 70.2127 94.8329 70.2127 94.6933Z" fill="#8338EC"/>
</svg>
