<svg width="150" height="150" viewBox="0 0 150 150" fill="none" xmlns="http://www.w3.org/2000/svg">
<rect x="1" y="1" width="148" height="148" rx="14" stroke="#FFBE0B" stroke-width="2"/>
<path d="M74.5 37C53.8234 37 37 53.8234 37 74.5C37 95.1766 53.8234 112 74.5 112C95.1766 112 112 95.1766 112 74.5C112 53.8234 95.1766 37 74.5 37ZM91.7031 91.1313C91.5267 91.3833 91.3023 91.5982 91.0428 91.7634C90.7832 91.9286 90.4936 92.041 90.1905 92.0941C89.8875 92.1472 89.5769 92.14 89.2766 92.073C88.9763 92.0059 88.6923 91.8802 88.4406 91.7031C79.6516 85.525 65.0312 85.1828 55.1594 87.4844C54.8593 87.5539 54.5484 87.5637 54.2446 87.5131C53.9407 87.4626 53.6498 87.3526 53.3884 87.1896C53.127 87.0266 52.9003 86.8137 52.7212 86.5631C52.5421 86.3125 52.4141 86.029 52.3445 85.7289C52.275 85.4288 52.2652 85.118 52.3158 84.8141C52.3664 84.5102 52.4763 84.2193 52.6393 83.9579C52.8023 83.6965 53.0152 83.4698 53.2658 83.2907C53.5165 83.1116 53.7999 82.9836 54.1 82.9141C64.9516 80.4016 81.1703 80.8609 91.1313 87.8688C91.6394 88.2258 91.985 88.77 92.0922 89.3817C92.1994 89.9934 92.0595 90.6226 91.7031 91.1313ZM96.2781 81.9859C96.0984 82.2359 95.8712 82.448 95.6095 82.6102C95.3478 82.7723 95.0567 82.8813 94.7529 82.9309C94.4491 82.9806 94.1384 82.9698 93.8387 82.8994C93.539 82.8289 93.2561 82.7001 93.0062 82.5203C82.8109 75.2031 70.2859 73.3844 53.5703 76.7969C53.2687 76.8587 52.9578 76.8606 52.6555 76.8023C52.3531 76.744 52.0652 76.6268 51.8082 76.4572C51.5512 76.2877 51.33 76.0692 51.1575 75.8142C50.9849 75.5592 50.8642 75.2727 50.8023 74.9711C50.7405 74.6695 50.7386 74.3586 50.7969 74.0563C50.8552 73.7539 50.9724 73.466 51.142 73.209C51.3115 72.9519 51.53 72.7308 51.785 72.5582C52.04 72.3857 52.3265 72.265 52.6281 72.2031C70.7078 68.5141 84.4047 70.5766 95.7391 78.7094C96.2439 79.0732 96.5841 79.6223 96.6851 80.2364C96.7861 80.8504 96.6398 81.4795 96.2781 81.9859ZM100.9 69.7047C100.727 69.9597 100.506 70.1782 100.248 70.3475C99.9911 70.5169 99.7029 70.6339 99.4003 70.6918C99.0978 70.7497 98.7867 70.7474 98.4851 70.685C98.1834 70.6226 97.897 70.5013 97.6422 70.3281C84.7188 61.5578 65.0734 61.5156 52.3562 66.0156C52.0657 66.1181 51.7578 66.1624 51.4502 66.1459C51.1425 66.1294 50.8411 66.0524 50.5632 65.9195C50.2853 65.7865 50.0363 65.6001 49.8304 65.3709C49.6245 65.1417 49.4658 64.8741 49.3633 64.5836C49.2608 64.293 49.2165 63.9852 49.233 63.6775C49.2495 63.3698 49.3265 63.0684 49.4594 62.7905C49.5924 62.5126 49.7788 62.2636 50.008 62.0577C50.2372 61.8518 50.5048 61.6931 50.7953 61.5906C64.6281 56.7016 86.0641 56.8047 100.281 66.4469C100.794 66.7983 101.146 67.338 101.262 67.9483C101.378 68.5586 101.248 69.1899 100.9 69.7047Z" fill="#FFBE0B"/>
</svg>
