<svg width="150" height="150" viewBox="0 0 150 150" fill="none" xmlns="http://www.w3.org/2000/svg">
<rect x="1" y="1" width="148" height="148" rx="14" stroke="#0099FF" stroke-width="2"/>
<path d="M112 51.3148C109.181 52.5376 106.2 53.346 103.15 53.7148C106.368 51.7922 108.78 48.7677 109.938 45.2023C106.913 47.0025 103.603 48.2709 100.15 48.9523C97.842 46.4494 94.7686 44.7834 91.4118 44.2154C88.0549 43.6475 84.6045 44.2098 81.6017 45.8142C78.5989 47.4186 76.2135 49.9742 74.8196 53.0804C73.4258 56.1865 73.1023 59.6675 73.9 62.9772C67.7854 62.668 61.8042 61.0758 56.345 58.3042C50.8858 55.5326 46.0707 51.6436 42.2125 46.8898C40.8593 49.2529 40.1482 51.9291 40.15 54.6523C40.1452 57.1812 40.7658 59.6721 41.9566 61.9031C43.1473 64.1342 44.8713 66.0362 46.975 67.4398C44.5299 67.3732 42.1371 66.7171 40 65.5273V65.7148C40.0183 69.2581 41.26 72.6863 43.5149 75.4196C45.7699 78.1529 48.8997 80.0234 52.375 80.7148C51.0372 81.1219 49.6483 81.3365 48.25 81.3523C47.2821 81.3409 46.3166 81.2532 45.3625 81.0898C46.3522 84.1378 48.2673 86.8015 50.8415 88.7104C53.4157 90.6192 56.5209 91.6781 59.725 91.7397C54.3145 95.997 47.6346 98.3205 40.75 98.3398C39.4965 98.3439 38.244 98.2687 37 98.1148C44.0291 102.653 52.2205 105.062 60.5875 105.052C66.3613 105.112 72.0893 104.021 77.4367 101.843C82.7841 99.664 87.6438 96.4418 91.732 92.3641C95.8202 88.2864 99.0549 83.435 101.247 78.0931C103.439 72.7513 104.545 67.0262 104.5 61.2522C104.5 60.6147 104.5 59.9398 104.5 59.2648C107.443 57.0703 109.981 54.3801 112 51.3148Z" fill="#0099FF"/>
</svg>
