<svg width="150" height="150" viewBox="0 0 150 150" fill="none" xmlns="http://www.w3.org/2000/svg">
<rect x="1" y="1" width="148" height="148" rx="14" stroke="#FB5607" stroke-width="2"/>
<path d="M112.983 67.5736C113.151 62.6971 112.085 57.857 109.882 53.5029C108.388 51.7163 106.314 50.5106 104.022 50.096C94.5427 49.2358 85.0238 48.8832 75.5064 49.0398C66.0237 48.8761 56.539 49.2173 47.0925 50.0619C45.2249 50.4016 43.4965 51.2776 42.1184 52.583C39.0521 55.4108 38.7114 60.2486 38.3707 64.337C37.8764 71.6877 37.8764 79.0633 38.3707 86.4139C38.4693 88.715 38.8119 90.9991 39.3928 93.2278C39.8036 94.9486 40.6347 96.5406 41.8117 97.8613C43.1993 99.2358 44.9679 100.162 46.8881 100.519C54.2332 101.425 61.6341 101.801 69.0332 101.643C80.9575 101.813 91.4168 101.643 103.784 100.689C105.751 100.354 107.57 99.4269 108.997 98.0316C109.95 97.0774 110.663 95.9094 111.075 94.6247C112.293 90.886 112.892 86.9731 112.846 83.0411C112.983 81.1332 112.983 69.6177 112.983 67.5736ZM67.8067 85.0852V63.9963L87.9758 74.5919C82.3203 77.7262 74.8591 81.2695 67.8067 85.0852Z" fill="#FB5607"/>
</svg>
